# xmcd CD database file
#
# Track frame offsets:
#	150
#	18027
#	35060
#	57040
#	72345
#	83172
#	100070
#	120027
#	128792
#	146672
#	162920
#
# Disc length: 2454 seconds
#
# Revision: 3
# Processed by: cddbd v1.5.2PL0 Copyright (c) Steve Scherf et al.
# Submitted via: CDex 1.70beta2
#
DISCID=8509940b
DTITLE=馬飼野康二 - Bubblegum Crisis 4: Revenge Road
DYEAR=1989
DGENRE=Anime
TTITLE0=グリフォン
TTITLE1=クライシス～怒りをこめて走れ～
TTITLE2=悪夢の日
TTITLE3=サバイバル
TTITLE4=リベンジ・ロード
TTITLE5=モンスター・マシン I
TTITLE6=ランナウェイ
TTITLE7=モンスター・マシン II
TTITLE8=サイバーモンスター
TTITLE9=悪魔と天使のキス
TTITLE10=TWILIGHT
EXTD=YEAR: 1989
EXTT0=
EXTT1=
EXTT2=
EXTT3=
EXTT4=
EXTT5=
EXTT6=
EXTT7=
EXTT8=
EXTT9=
EXTT10=
PLAYORDER=
